<svg width="14" height="26" viewBox="0 0 14 26" fill="none" xmlns="http://www.w3.org/2000/svg">
<path d="M1.02175 24.8074C0.835011 24.6162 0.730469 24.3596 0.730469 24.0924C0.730469 23.8251 0.835011 23.5685 1.02175 23.3773L11.4544 12.6749L1.02175 1.9747C0.835013 1.78352 0.730471 1.52688 0.730471 1.25964C0.730471 0.992395 0.835013 0.735754 1.02175 0.544577C1.11251 0.451353 1.22104 0.37726 1.34091 0.326668C1.46078 0.276075 1.58957 0.250012 1.71968 0.250012C1.84979 0.250012 1.97859 0.276075 2.09846 0.326668C2.21833 0.37726 2.32685 0.451353 2.41762 0.544577L13.5118 11.9278C13.7066 12.1277 13.8157 12.3958 13.8157 12.6749C13.8157 12.9541 13.7066 13.2222 13.5118 13.4221L2.41761 24.8053C2.32685 24.8985 2.21833 24.9726 2.09846 25.0232C1.97858 25.0738 1.84979 25.0999 1.71968 25.0999C1.58957 25.0999 1.46078 25.0738 1.3409 25.0232C1.22103 24.9726 1.11251 24.8985 1.02175 24.8053L1.02175 24.8074Z" fill="#515151"/>
</svg>
