<svg width="14" height="26" viewBox="0 0 14 26" fill="none" xmlns="http://www.w3.org/2000/svg">
<path d="M13.4861 0.701361C13.6728 0.892539 13.7773 1.14918 13.7773 1.41642C13.7773 1.68367 13.6728 1.94031 13.4861 2.13148L3.05344 12.8339L13.4861 23.5341C13.6728 23.7253 13.7773 23.9819 13.7773 24.2491C13.7773 24.5164 13.6728 24.773 13.4861 24.9642C13.3953 25.0574 13.2868 25.1315 13.1669 25.1821C13.047 25.2327 12.9182 25.2588 12.7881 25.2588C12.658 25.2588 12.5292 25.2327 12.4094 25.1821C12.2895 25.1315 12.181 25.0574 12.0902 24.9642L0.996036 13.581C0.801184 13.3811 0.692131 13.113 0.692131 12.8339C0.692131 12.5547 0.801184 12.2866 0.996036 12.0867L12.0902 0.703503C12.181 0.61028 12.2895 0.536186 12.4094 0.485594C12.5292 0.435001 12.658 0.408936 12.7881 0.408936C12.9182 0.408936 13.047 0.435001 13.1669 0.485594C13.2868 0.536186 13.3953 0.61028 13.4861 0.703503V0.701361Z" fill="#515151"/>
</svg>
